<svg width="800" height="900" viewBox="0 0 800 900" fill="none" xmlns="http://www.w3.org/2000/svg">
  <rect width="800" height="900" rx="80" fill="#F4F7F2"/>
  <rect x="180" y="140" width="440" height="560" rx="60" fill="#E8F0EC"/>
  <circle cx="400" cy="360" r="140" fill="#D9A441" fill-opacity="0.25"/>
  <circle cx="400" cy="345" r="120" fill="#0F2B3D"/>
  <path d="M270 670C286 585 314 537 400 537C486 537 514 585 530 670" fill="#1F6E5C"/>
  <path d="M300 330C300 258 347 220 400 220C453 220 500 258 500 330V355C500 399 468 432 424 432H376C332 432 300 399 300 355V330Z" fill="#F4F7F2"/>
  <circle cx="360" cy="342" r="10" fill="#0F2B3D"/>
  <circle cx="440" cy="342" r="10" fill="#0F2B3D"/>
  <path d="M375 390C388 406 412 406 425 390" stroke="#0F2B3D" stroke-width="8" stroke-linecap="round"/>
</svg>